<mxfile host="app.diagrams.net" agent="Mozilla/5.0 (Windows NT 10.0; Win64; x64) AppleWebKit/537.36 (KHTML, like Gecko) Chrome/130.0.0.0 Safari/537.36" version="24.8.3">
  <diagram name="Page-1" id="JdEf69RV8JYr5lFsVH8T">
    <mxGraphModel dx="1805" dy="1151" grid="1" gridSize="10" guides="1" tooltips="1" connect="1" arrows="1" fold="1" page="1" pageScale="1" pageWidth="850" pageHeight="1100" math="0" shadow="0">
      <root>
        <mxCell id="0" />
        <mxCell id="1" parent="0" />
        <mxCell id="xNaYEZxjQZqMMtpHfQ9c-3" style="edgeStyle=orthogonalEdgeStyle;rounded=0;orthogonalLoop=1;jettySize=auto;html=1;" edge="1" parent="1" source="xNaYEZxjQZqMMtpHfQ9c-1" target="xNaYEZxjQZqMMtpHfQ9c-2">
          <mxGeometry relative="1" as="geometry" />
        </mxCell>
        <mxCell id="xNaYEZxjQZqMMtpHfQ9c-1" value="Użytkownik" style="shape=umlActor;verticalLabelPosition=bottom;verticalAlign=top;html=1;outlineConnect=0;" vertex="1" parent="1">
          <mxGeometry x="20" y="415" width="30" height="60" as="geometry" />
        </mxCell>
        <mxCell id="xNaYEZxjQZqMMtpHfQ9c-23" style="edgeStyle=orthogonalEdgeStyle;rounded=0;orthogonalLoop=1;jettySize=auto;html=1;dashed=1;" edge="1" parent="1" source="xNaYEZxjQZqMMtpHfQ9c-2" target="xNaYEZxjQZqMMtpHfQ9c-21">
          <mxGeometry relative="1" as="geometry" />
        </mxCell>
        <mxCell id="xNaYEZxjQZqMMtpHfQ9c-25" value="&amp;lt;&amp;lt;invoke&amp;gt;&amp;gt;" style="edgeLabel;html=1;align=center;verticalAlign=middle;resizable=0;points=[];" vertex="1" connectable="0" parent="xNaYEZxjQZqMMtpHfQ9c-23">
          <mxGeometry x="-0.1" y="-1" relative="1" as="geometry">
            <mxPoint x="-26" y="1" as="offset" />
          </mxGeometry>
        </mxCell>
        <mxCell id="xNaYEZxjQZqMMtpHfQ9c-24" style="edgeStyle=orthogonalEdgeStyle;rounded=0;orthogonalLoop=1;jettySize=auto;html=1;dashed=1;" edge="1" parent="1" source="xNaYEZxjQZqMMtpHfQ9c-2" target="xNaYEZxjQZqMMtpHfQ9c-22">
          <mxGeometry relative="1" as="geometry" />
        </mxCell>
        <mxCell id="xNaYEZxjQZqMMtpHfQ9c-26" value="&amp;lt;&amp;lt;invoke&amp;gt;&amp;gt;" style="edgeLabel;html=1;align=center;verticalAlign=middle;resizable=0;points=[];" vertex="1" connectable="0" parent="xNaYEZxjQZqMMtpHfQ9c-24">
          <mxGeometry y="4" relative="1" as="geometry">
            <mxPoint x="4" as="offset" />
          </mxGeometry>
        </mxCell>
        <mxCell id="xNaYEZxjQZqMMtpHfQ9c-27" style="edgeStyle=orthogonalEdgeStyle;rounded=0;orthogonalLoop=1;jettySize=auto;html=1;dashed=1;" edge="1" parent="1" source="xNaYEZxjQZqMMtpHfQ9c-2" target="xNaYEZxjQZqMMtpHfQ9c-11">
          <mxGeometry relative="1" as="geometry" />
        </mxCell>
        <mxCell id="xNaYEZxjQZqMMtpHfQ9c-28" value="&amp;lt;&amp;lt;invoke&amp;gt;&amp;gt;" style="edgeLabel;html=1;align=center;verticalAlign=middle;resizable=0;points=[];" vertex="1" connectable="0" parent="xNaYEZxjQZqMMtpHfQ9c-27">
          <mxGeometry x="0.0632" relative="1" as="geometry">
            <mxPoint as="offset" />
          </mxGeometry>
        </mxCell>
        <mxCell id="xNaYEZxjQZqMMtpHfQ9c-43" style="edgeStyle=orthogonalEdgeStyle;rounded=0;orthogonalLoop=1;jettySize=auto;html=1;dashed=1;" edge="1" parent="1" source="xNaYEZxjQZqMMtpHfQ9c-2" target="xNaYEZxjQZqMMtpHfQ9c-7">
          <mxGeometry relative="1" as="geometry" />
        </mxCell>
        <mxCell id="xNaYEZxjQZqMMtpHfQ9c-58" value="&amp;lt;&amp;lt;invoke&amp;gt;&amp;gt;" style="edgeLabel;html=1;align=center;verticalAlign=middle;resizable=0;points=[];" vertex="1" connectable="0" parent="xNaYEZxjQZqMMtpHfQ9c-43">
          <mxGeometry x="0.1571" y="2" relative="1" as="geometry">
            <mxPoint as="offset" />
          </mxGeometry>
        </mxCell>
        <mxCell id="xNaYEZxjQZqMMtpHfQ9c-44" style="edgeStyle=orthogonalEdgeStyle;rounded=0;orthogonalLoop=1;jettySize=auto;html=1;entryX=0;entryY=0.5;entryDx=0;entryDy=0;dashed=1;" edge="1" parent="1" source="xNaYEZxjQZqMMtpHfQ9c-2" target="xNaYEZxjQZqMMtpHfQ9c-4">
          <mxGeometry relative="1" as="geometry">
            <Array as="points">
              <mxPoint x="310" y="445" />
              <mxPoint x="310" y="345" />
            </Array>
          </mxGeometry>
        </mxCell>
        <mxCell id="xNaYEZxjQZqMMtpHfQ9c-45" style="edgeStyle=orthogonalEdgeStyle;rounded=0;orthogonalLoop=1;jettySize=auto;html=1;entryX=0;entryY=0.5;entryDx=0;entryDy=0;dashed=1;" edge="1" parent="1" source="xNaYEZxjQZqMMtpHfQ9c-2" target="xNaYEZxjQZqMMtpHfQ9c-6">
          <mxGeometry relative="1" as="geometry">
            <Array as="points">
              <mxPoint x="310" y="445" />
              <mxPoint x="310" y="235" />
            </Array>
          </mxGeometry>
        </mxCell>
        <mxCell id="xNaYEZxjQZqMMtpHfQ9c-46" style="edgeStyle=orthogonalEdgeStyle;rounded=0;orthogonalLoop=1;jettySize=auto;html=1;entryX=0;entryY=0.5;entryDx=0;entryDy=0;dashed=1;" edge="1" parent="1" source="xNaYEZxjQZqMMtpHfQ9c-2" target="xNaYEZxjQZqMMtpHfQ9c-5">
          <mxGeometry relative="1" as="geometry">
            <Array as="points">
              <mxPoint x="310" y="445" />
              <mxPoint x="310" y="135" />
            </Array>
          </mxGeometry>
        </mxCell>
        <mxCell id="xNaYEZxjQZqMMtpHfQ9c-55" value="&amp;lt;&amp;lt;invoke&amp;gt;&amp;gt;" style="edgeLabel;html=1;align=center;verticalAlign=middle;resizable=0;points=[];" vertex="1" connectable="0" parent="xNaYEZxjQZqMMtpHfQ9c-46">
          <mxGeometry x="-0.475" y="3" relative="1" as="geometry">
            <mxPoint x="53" y="-11" as="offset" />
          </mxGeometry>
        </mxCell>
        <mxCell id="xNaYEZxjQZqMMtpHfQ9c-56" value="&amp;lt;&amp;lt;invoke&amp;gt;&amp;gt;" style="edgeLabel;html=1;align=center;verticalAlign=middle;resizable=0;points=[];" vertex="1" connectable="0" parent="xNaYEZxjQZqMMtpHfQ9c-46">
          <mxGeometry x="0.06" relative="1" as="geometry">
            <mxPoint x="50" y="-1" as="offset" />
          </mxGeometry>
        </mxCell>
        <mxCell id="xNaYEZxjQZqMMtpHfQ9c-57" value="&amp;lt;&amp;lt;invoke&amp;gt;&amp;gt;" style="edgeLabel;html=1;align=center;verticalAlign=middle;resizable=0;points=[];" vertex="1" connectable="0" parent="xNaYEZxjQZqMMtpHfQ9c-46">
          <mxGeometry x="0.565" y="-1" relative="1" as="geometry">
            <mxPoint x="38" y="-2" as="offset" />
          </mxGeometry>
        </mxCell>
        <mxCell id="xNaYEZxjQZqMMtpHfQ9c-2" value="Wyświetlenie widoku profilu użytkownika" style="ellipse;whiteSpace=wrap;html=1;" vertex="1" parent="1">
          <mxGeometry x="140" y="410" width="140" height="70" as="geometry" />
        </mxCell>
        <mxCell id="xNaYEZxjQZqMMtpHfQ9c-4" value="Edytowanie opisu użytkownika" style="ellipse;whiteSpace=wrap;html=1;" vertex="1" parent="1">
          <mxGeometry x="420" y="310" width="140" height="70" as="geometry" />
        </mxCell>
        <mxCell id="xNaYEZxjQZqMMtpHfQ9c-5" value="Wyświetlenie listy postów użytkownika" style="ellipse;whiteSpace=wrap;html=1;" vertex="1" parent="1">
          <mxGeometry x="420" y="100" width="140" height="70" as="geometry" />
        </mxCell>
        <mxCell id="xNaYEZxjQZqMMtpHfQ9c-47" style="edgeStyle=orthogonalEdgeStyle;rounded=0;orthogonalLoop=1;jettySize=auto;html=1;entryX=0;entryY=0.5;entryDx=0;entryDy=0;strokeColor=none;dashed=1;" edge="1" parent="1" source="xNaYEZxjQZqMMtpHfQ9c-6" target="xNaYEZxjQZqMMtpHfQ9c-19">
          <mxGeometry relative="1" as="geometry" />
        </mxCell>
        <mxCell id="xNaYEZxjQZqMMtpHfQ9c-59" style="edgeStyle=orthogonalEdgeStyle;rounded=0;orthogonalLoop=1;jettySize=auto;html=1;dashed=1;" edge="1" parent="1" source="xNaYEZxjQZqMMtpHfQ9c-6" target="xNaYEZxjQZqMMtpHfQ9c-19">
          <mxGeometry relative="1" as="geometry" />
        </mxCell>
        <mxCell id="xNaYEZxjQZqMMtpHfQ9c-60" value="&amp;lt;&amp;lt;invoke&amp;gt;&amp;gt;" style="edgeLabel;html=1;align=center;verticalAlign=middle;resizable=0;points=[];" vertex="1" connectable="0" parent="xNaYEZxjQZqMMtpHfQ9c-59">
          <mxGeometry x="-0.18" relative="1" as="geometry">
            <mxPoint as="offset" />
          </mxGeometry>
        </mxCell>
        <mxCell id="xNaYEZxjQZqMMtpHfQ9c-6" value="Wyświetlenie zdjęć użytkownika" style="ellipse;whiteSpace=wrap;html=1;" vertex="1" parent="1">
          <mxGeometry x="420" y="200" width="140" height="70" as="geometry" />
        </mxCell>
        <mxCell id="xNaYEZxjQZqMMtpHfQ9c-48" style="edgeStyle=orthogonalEdgeStyle;rounded=0;orthogonalLoop=1;jettySize=auto;html=1;entryX=0;entryY=0.5;entryDx=0;entryDy=0;dashed=1;curved=1;" edge="1" parent="1" source="xNaYEZxjQZqMMtpHfQ9c-7" target="xNaYEZxjQZqMMtpHfQ9c-14">
          <mxGeometry relative="1" as="geometry">
            <Array as="points">
              <mxPoint x="580" y="445" />
              <mxPoint x="580" y="535" />
            </Array>
          </mxGeometry>
        </mxCell>
        <mxCell id="xNaYEZxjQZqMMtpHfQ9c-52" value="&amp;lt;&amp;lt;invoke&amp;gt;&amp;gt;" style="edgeLabel;html=1;align=center;verticalAlign=middle;resizable=0;points=[];" vertex="1" connectable="0" parent="xNaYEZxjQZqMMtpHfQ9c-48">
          <mxGeometry x="-0.1895" y="3" relative="1" as="geometry">
            <mxPoint as="offset" />
          </mxGeometry>
        </mxCell>
        <mxCell id="xNaYEZxjQZqMMtpHfQ9c-49" style="edgeStyle=orthogonalEdgeStyle;rounded=0;orthogonalLoop=1;jettySize=auto;html=1;entryX=0;entryY=0.5;entryDx=0;entryDy=0;dashed=1;" edge="1" parent="1" source="xNaYEZxjQZqMMtpHfQ9c-7" target="xNaYEZxjQZqMMtpHfQ9c-13">
          <mxGeometry relative="1" as="geometry" />
        </mxCell>
        <mxCell id="xNaYEZxjQZqMMtpHfQ9c-54" value="&amp;lt;&amp;lt;invoke&amp;gt;&amp;gt;" style="edgeLabel;html=1;align=center;verticalAlign=middle;resizable=0;points=[];" vertex="1" connectable="0" parent="xNaYEZxjQZqMMtpHfQ9c-49">
          <mxGeometry x="-0.18" y="2" relative="1" as="geometry">
            <mxPoint x="9" y="2" as="offset" />
          </mxGeometry>
        </mxCell>
        <mxCell id="xNaYEZxjQZqMMtpHfQ9c-50" style="edgeStyle=orthogonalEdgeStyle;rounded=0;orthogonalLoop=1;jettySize=auto;html=1;entryX=0;entryY=0.5;entryDx=0;entryDy=0;dashed=1;curved=1;" edge="1" parent="1" source="xNaYEZxjQZqMMtpHfQ9c-7" target="xNaYEZxjQZqMMtpHfQ9c-15">
          <mxGeometry relative="1" as="geometry">
            <Array as="points">
              <mxPoint x="580" y="445" />
              <mxPoint x="580" y="355" />
            </Array>
          </mxGeometry>
        </mxCell>
        <mxCell id="xNaYEZxjQZqMMtpHfQ9c-53" value="&amp;lt;&amp;lt;invoke&amp;gt;&amp;gt;" style="edgeLabel;html=1;align=center;verticalAlign=middle;resizable=0;points=[];" vertex="1" connectable="0" parent="xNaYEZxjQZqMMtpHfQ9c-50">
          <mxGeometry x="-0.3053" y="3" relative="1" as="geometry">
            <mxPoint as="offset" />
          </mxGeometry>
        </mxCell>
        <mxCell id="xNaYEZxjQZqMMtpHfQ9c-7" value="Wyświetlenie listy znajomych użytkownika" style="ellipse;whiteSpace=wrap;html=1;" vertex="1" parent="1">
          <mxGeometry x="420" y="410" width="140" height="70" as="geometry" />
        </mxCell>
        <mxCell id="xNaYEZxjQZqMMtpHfQ9c-38" style="edgeStyle=orthogonalEdgeStyle;rounded=0;orthogonalLoop=1;jettySize=auto;html=1;dashed=1;" edge="1" parent="1" source="xNaYEZxjQZqMMtpHfQ9c-8" target="xNaYEZxjQZqMMtpHfQ9c-17">
          <mxGeometry relative="1" as="geometry" />
        </mxCell>
        <mxCell id="xNaYEZxjQZqMMtpHfQ9c-41" value="&amp;lt;&amp;lt;invoke&amp;gt;&amp;gt;" style="edgeLabel;html=1;align=center;verticalAlign=middle;resizable=0;points=[];" vertex="1" connectable="0" parent="xNaYEZxjQZqMMtpHfQ9c-38">
          <mxGeometry x="-0.24" y="-2" relative="1" as="geometry">
            <mxPoint as="offset" />
          </mxGeometry>
        </mxCell>
        <mxCell id="xNaYEZxjQZqMMtpHfQ9c-8" value="Wyświetlenie informacji o pracy i edukacji" style="ellipse;whiteSpace=wrap;html=1;" vertex="1" parent="1">
          <mxGeometry x="370" y="720" width="140" height="70" as="geometry" />
        </mxCell>
        <mxCell id="xNaYEZxjQZqMMtpHfQ9c-39" style="edgeStyle=orthogonalEdgeStyle;rounded=0;orthogonalLoop=1;jettySize=auto;html=1;dashed=1;" edge="1" parent="1" target="xNaYEZxjQZqMMtpHfQ9c-18">
          <mxGeometry relative="1" as="geometry">
            <mxPoint x="610" y="790" as="sourcePoint" />
          </mxGeometry>
        </mxCell>
        <mxCell id="xNaYEZxjQZqMMtpHfQ9c-42" value="&amp;lt;&amp;lt;invoke&amp;gt;&amp;gt;" style="edgeLabel;html=1;align=center;verticalAlign=middle;resizable=0;points=[];" vertex="1" connectable="0" parent="xNaYEZxjQZqMMtpHfQ9c-39">
          <mxGeometry x="-0.2105" y="-3" relative="1" as="geometry">
            <mxPoint as="offset" />
          </mxGeometry>
        </mxCell>
        <mxCell id="xNaYEZxjQZqMMtpHfQ9c-9" value="Wyświetlenie informacji kontaktowych" style="ellipse;whiteSpace=wrap;html=1;" vertex="1" parent="1">
          <mxGeometry x="540" y="720" width="140" height="70" as="geometry" />
        </mxCell>
        <mxCell id="xNaYEZxjQZqMMtpHfQ9c-37" style="edgeStyle=orthogonalEdgeStyle;rounded=0;orthogonalLoop=1;jettySize=auto;html=1;dashed=1;" edge="1" parent="1" source="xNaYEZxjQZqMMtpHfQ9c-10" target="xNaYEZxjQZqMMtpHfQ9c-16">
          <mxGeometry relative="1" as="geometry" />
        </mxCell>
        <mxCell id="xNaYEZxjQZqMMtpHfQ9c-40" value="&amp;lt;&amp;lt;invoke&amp;gt;&amp;gt;" style="edgeLabel;html=1;align=center;verticalAlign=middle;resizable=0;points=[];" vertex="1" connectable="0" parent="xNaYEZxjQZqMMtpHfQ9c-37">
          <mxGeometry x="-0.24" y="-2" relative="1" as="geometry">
            <mxPoint as="offset" />
          </mxGeometry>
        </mxCell>
        <mxCell id="xNaYEZxjQZqMMtpHfQ9c-10" value="Wyświetlenie informacji lokalizacyjnych" style="ellipse;whiteSpace=wrap;html=1;" vertex="1" parent="1">
          <mxGeometry x="200" y="720" width="140" height="70" as="geometry" />
        </mxCell>
        <mxCell id="xNaYEZxjQZqMMtpHfQ9c-29" style="edgeStyle=orthogonalEdgeStyle;rounded=0;orthogonalLoop=1;jettySize=auto;html=1;entryX=0.5;entryY=0;entryDx=0;entryDy=0;dashed=1;" edge="1" parent="1" source="xNaYEZxjQZqMMtpHfQ9c-11" target="xNaYEZxjQZqMMtpHfQ9c-12">
          <mxGeometry relative="1" as="geometry">
            <Array as="points">
              <mxPoint x="310" y="660" />
              <mxPoint x="120" y="660" />
            </Array>
          </mxGeometry>
        </mxCell>
        <mxCell id="xNaYEZxjQZqMMtpHfQ9c-33" value="&amp;lt;&amp;lt;invoke&amp;gt;&amp;gt;" style="edgeLabel;html=1;align=center;verticalAlign=middle;resizable=0;points=[];" vertex="1" connectable="0" parent="xNaYEZxjQZqMMtpHfQ9c-29">
          <mxGeometry x="0.7185" y="1" relative="1" as="geometry">
            <mxPoint as="offset" />
          </mxGeometry>
        </mxCell>
        <mxCell id="xNaYEZxjQZqMMtpHfQ9c-30" style="edgeStyle=orthogonalEdgeStyle;rounded=0;orthogonalLoop=1;jettySize=auto;html=1;dashed=1;" edge="1" parent="1" source="xNaYEZxjQZqMMtpHfQ9c-11" target="xNaYEZxjQZqMMtpHfQ9c-10">
          <mxGeometry relative="1" as="geometry">
            <Array as="points">
              <mxPoint x="310" y="660" />
              <mxPoint x="270" y="660" />
            </Array>
          </mxGeometry>
        </mxCell>
        <mxCell id="xNaYEZxjQZqMMtpHfQ9c-34" value="&amp;lt;&amp;lt;invoke&amp;gt;&amp;gt;" style="edgeLabel;html=1;align=center;verticalAlign=middle;resizable=0;points=[];" vertex="1" connectable="0" parent="xNaYEZxjQZqMMtpHfQ9c-30">
          <mxGeometry x="0.3833" y="-4" relative="1" as="geometry">
            <mxPoint x="4" as="offset" />
          </mxGeometry>
        </mxCell>
        <mxCell id="xNaYEZxjQZqMMtpHfQ9c-31" style="edgeStyle=orthogonalEdgeStyle;rounded=0;orthogonalLoop=1;jettySize=auto;html=1;dashed=1;" edge="1" parent="1" source="xNaYEZxjQZqMMtpHfQ9c-11" target="xNaYEZxjQZqMMtpHfQ9c-8">
          <mxGeometry relative="1" as="geometry">
            <Array as="points">
              <mxPoint x="310" y="660" />
              <mxPoint x="440" y="660" />
            </Array>
          </mxGeometry>
        </mxCell>
        <mxCell id="xNaYEZxjQZqMMtpHfQ9c-35" value="&amp;lt;&amp;lt;invoke&amp;gt;&amp;gt;" style="edgeLabel;html=1;align=center;verticalAlign=middle;resizable=0;points=[];" vertex="1" connectable="0" parent="xNaYEZxjQZqMMtpHfQ9c-31">
          <mxGeometry x="0.6667" y="-4" relative="1" as="geometry">
            <mxPoint as="offset" />
          </mxGeometry>
        </mxCell>
        <mxCell id="xNaYEZxjQZqMMtpHfQ9c-32" style="edgeStyle=orthogonalEdgeStyle;rounded=0;orthogonalLoop=1;jettySize=auto;html=1;entryX=0.5;entryY=0;entryDx=0;entryDy=0;dashed=1;" edge="1" parent="1" source="xNaYEZxjQZqMMtpHfQ9c-11" target="xNaYEZxjQZqMMtpHfQ9c-9">
          <mxGeometry relative="1" as="geometry">
            <Array as="points">
              <mxPoint x="310" y="660" />
              <mxPoint x="610" y="660" />
            </Array>
          </mxGeometry>
        </mxCell>
        <mxCell id="xNaYEZxjQZqMMtpHfQ9c-36" value="&amp;lt;&amp;lt;invoke&amp;gt;&amp;gt;" style="edgeLabel;html=1;align=center;verticalAlign=middle;resizable=0;points=[];" vertex="1" connectable="0" parent="xNaYEZxjQZqMMtpHfQ9c-32">
          <mxGeometry x="0.7789" y="-1" relative="1" as="geometry">
            <mxPoint x="1" y="7" as="offset" />
          </mxGeometry>
        </mxCell>
        <mxCell id="xNaYEZxjQZqMMtpHfQ9c-11" value="Wyświetlenie informacji o użytkowniku" style="ellipse;whiteSpace=wrap;html=1;" vertex="1" parent="1">
          <mxGeometry x="240" y="570" width="140" height="70" as="geometry" />
        </mxCell>
        <mxCell id="xNaYEZxjQZqMMtpHfQ9c-12" value="Wyświetlenie podsumowania" style="ellipse;whiteSpace=wrap;html=1;" vertex="1" parent="1">
          <mxGeometry x="50" y="720" width="140" height="70" as="geometry" />
        </mxCell>
        <mxCell id="xNaYEZxjQZqMMtpHfQ9c-13" value="Wyświetlenie przefiltrowanej listy użytkowników" style="ellipse;whiteSpace=wrap;html=1;" vertex="1" parent="1">
          <mxGeometry x="660" y="410" width="140" height="70" as="geometry" />
        </mxCell>
        <mxCell id="xNaYEZxjQZqMMtpHfQ9c-14" value="Dodanie użytkownika do znajomych" style="ellipse;whiteSpace=wrap;html=1;" vertex="1" parent="1">
          <mxGeometry x="660" y="500" width="140" height="70" as="geometry" />
        </mxCell>
        <mxCell id="xNaYEZxjQZqMMtpHfQ9c-15" value="Usunięcie użytkownika ze znajomych" style="ellipse;whiteSpace=wrap;html=1;" vertex="1" parent="1">
          <mxGeometry x="660" y="320" width="140" height="70" as="geometry" />
        </mxCell>
        <mxCell id="xNaYEZxjQZqMMtpHfQ9c-16" value="Edytowanie informacji lokalizacyjnych" style="ellipse;whiteSpace=wrap;html=1;" vertex="1" parent="1">
          <mxGeometry x="200" y="840" width="140" height="70" as="geometry" />
        </mxCell>
        <mxCell id="xNaYEZxjQZqMMtpHfQ9c-17" value="Edytowanie informacji o pracy i edukacji" style="ellipse;whiteSpace=wrap;html=1;" vertex="1" parent="1">
          <mxGeometry x="370" y="840" width="140" height="70" as="geometry" />
        </mxCell>
        <mxCell id="xNaYEZxjQZqMMtpHfQ9c-18" value="Edytowanie informacji kontaktowych" style="ellipse;whiteSpace=wrap;html=1;" vertex="1" parent="1">
          <mxGeometry x="540" y="840" width="140" height="70" as="geometry" />
        </mxCell>
        <mxCell id="xNaYEZxjQZqMMtpHfQ9c-19" value="Pobranie zdjęcia" style="ellipse;whiteSpace=wrap;html=1;" vertex="1" parent="1">
          <mxGeometry x="660" y="200" width="140" height="70" as="geometry" />
        </mxCell>
        <mxCell id="xNaYEZxjQZqMMtpHfQ9c-21" value="Zmienienie zdjęcia profilowego" style="ellipse;whiteSpace=wrap;html=1;" vertex="1" parent="1">
          <mxGeometry x="10" y="570" width="140" height="70" as="geometry" />
        </mxCell>
        <mxCell id="xNaYEZxjQZqMMtpHfQ9c-22" value="Zmienienie baneru profilu" style="ellipse;whiteSpace=wrap;html=1;" vertex="1" parent="1">
          <mxGeometry x="140" y="280" width="140" height="70" as="geometry" />
        </mxCell>
      </root>
    </mxGraphModel>
  </diagram>
</mxfile>
